<svg xmlns="http://www.w3.org/2000/svg" xmlns:xlink="http://www.w3.org/1999/xlink" width="500" zoomAndPan="magnify" viewBox="0 0 375 374.999991" height="500" preserveAspectRatio="xMidYMid meet" version="1.0"><defs><g/></defs><g fill="#000000" fill-opacity="1"><g transform="translate(120.417865, 211.064165)"><g><path d="M 17.9375 0 C 18.925781 -2.9375 19.613281 -5.867188 20 -8.796875 C 20.394531 -11.734375 20.59375 -15.304688 20.59375 -19.515625 L 20.59375 -60.84375 C 16.550781 -60.84375 12.6875 -60.441406 9 -59.640625 C 5.320312 -58.835938 2.019531 -57.71875 -0.90625 -56.28125 L -1.078125 -56.453125 L 2.328125 -67.984375 L 53.125 -67.984375 L 48.484375 -57.203125 C 45.828125 -58.472656 43.113281 -59.394531 40.34375 -59.96875 C 37.570312 -60.550781 34.28125 -60.84375 30.46875 -60.84375 L 30.46875 -19.515625 C 30.46875 -15.410156 30.675781 -11.878906 31.09375 -8.921875 C 31.507812 -5.960938 32.1875 -2.988281 33.125 0 Z M 17.9375 0 "/></g></g></g><g fill="#000000" fill-opacity="1"><g transform="translate(172.386567, 211.064165)"><g><path d="M 79.53125 -67.734375 C 77.425781 -65.140625 76.039062 -62.757812 75.375 -60.59375 C 74.707031 -58.4375 74.375 -55.503906 74.375 -51.796875 L 74.375 -19.515625 C 74.375 -15.410156 74.582031 -11.878906 75 -8.921875 C 75.414062 -5.960938 76.09375 -2.988281 77.03125 0 L 61.84375 0 C 62.84375 -2.9375 63.535156 -5.867188 63.921875 -8.796875 C 64.304688 -11.734375 64.5 -15.304688 64.5 -19.515625 L 64.5 -49.890625 L 41.015625 -20.84375 L 17.6875 -49.640625 L 17.6875 -19.515625 C 17.6875 -15.410156 17.890625 -11.878906 18.296875 -8.921875 C 18.710938 -5.960938 19.394531 -2.988281 20.34375 0 L 5.140625 0 C 6.140625 -2.9375 6.832031 -5.867188 7.21875 -8.796875 C 7.601562 -11.734375 7.796875 -15.304688 7.796875 -19.515625 L 7.796875 -60.6875 C 5.703125 -63.34375 3.488281 -65.691406 1.15625 -67.734375 L 1.15625 -67.984375 L 16.1875 -67.984375 C 16.90625 -66.273438 17.734375 -64.671875 18.671875 -63.171875 C 19.617188 -61.679688 21.003906 -59.828125 22.828125 -57.609375 L 41.09375 -35.03125 L 61.4375 -60.265625 C 63.644531 -62.984375 65.332031 -65.554688 66.5 -67.984375 L 79.53125 -67.984375 Z M 79.53125 -67.734375 "/></g></g></g><path fill="#ffffff" d="M 369.429688 208.355469 C 366.304688 211.054688 363.121094 213.683594 359.882812 216.238281 C 356.640625 218.796875 353.34375 221.28125 349.992188 223.691406 C 346.644531 226.105469 343.238281 228.4375 339.785156 230.699219 C 336.332031 232.957031 332.828125 235.140625 329.277344 237.242188 C 325.726562 239.347656 322.128906 241.371094 318.488281 243.316406 C 314.847656 245.257812 311.164062 247.121094 307.441406 248.902344 C 303.71875 250.679688 299.957031 252.375 296.15625 253.988281 C 292.359375 255.601562 288.523438 257.128906 284.65625 258.570312 C 280.792969 260.011719 276.894531 261.367188 272.96875 262.636719 C 269.039062 263.90625 265.085938 265.085938 261.109375 266.179688 C 257.128906 267.273438 253.128906 268.277344 249.105469 269.191406 C 245.078125 270.105469 241.039062 270.929688 236.976562 271.667969 C 232.917969 272.402344 228.84375 273.046875 224.753906 273.597656 C 220.664062 274.152344 216.566406 274.617188 212.457031 274.988281 C 208.347656 275.359375 204.230469 275.636719 200.109375 275.828125 C 195.988281 276.015625 191.863281 276.113281 187.734375 276.117188 C 183.609375 276.121094 179.484375 276.035156 175.363281 275.855469 C 171.242188 275.675781 167.125 275.40625 163.015625 275.042969 C 158.902344 274.683594 154.804688 274.230469 150.714844 273.683594 C 146.621094 273.140625 142.546875 272.507812 138.484375 271.78125 C 134.421875 271.054688 130.378906 270.238281 126.351562 269.335938 C 122.328125 268.429688 118.324219 267.433594 114.339844 266.351562 C 110.359375 265.265625 106.402344 264.09375 102.472656 262.835938 C 98.542969 261.578125 94.644531 260.230469 90.773438 258.796875 C 86.902344 257.363281 83.066406 255.84375 79.265625 254.242188 C 75.460938 252.636719 71.695312 250.949219 67.96875 249.179688 C 64.242188 247.40625 60.554688 245.554688 56.910156 243.617188 C 53.261719 241.683594 49.660156 239.667969 46.105469 237.574219 C 42.550781 235.476562 39.042969 233.304688 35.582031 231.050781 C 32.121094 228.800781 28.714844 226.472656 25.359375 224.070312 C 22 221.667969 18.699219 219.191406 15.453125 216.640625 C 12.207031 214.089844 9.019531 211.46875 5.886719 208.777344 L 48.195312 159.445312 C 50.597656 161.511719 53.042969 163.519531 55.53125 165.476562 C 58.023438 167.429688 60.554688 169.332031 63.128906 171.171875 C 65.703125 173.015625 68.316406 174.800781 70.96875 176.527344 C 73.621094 178.253906 76.3125 179.921875 79.039062 181.53125 C 81.769531 183.136719 84.53125 184.683594 87.324219 186.167969 C 90.121094 187.652344 92.949219 189.070312 95.808594 190.429688 C 98.667969 191.789062 101.554688 193.082031 104.472656 194.3125 C 107.386719 195.542969 110.328125 196.707031 113.296875 197.804688 C 116.265625 198.90625 119.257812 199.9375 122.269531 200.902344 C 125.285156 201.871094 128.316406 202.769531 131.371094 203.601562 C 134.425781 204.429688 137.496094 205.195312 140.582031 205.886719 C 143.671875 206.582031 146.773438 207.207031 149.886719 207.765625 C 153.003906 208.320312 156.128906 208.808594 159.265625 209.226562 C 162.402344 209.640625 165.546875 209.988281 168.699219 210.265625 C 171.851562 210.542969 175.011719 210.753906 178.171875 210.890625 C 181.332031 211.027344 184.496094 211.09375 187.660156 211.089844 C 190.824219 211.085938 193.988281 211.011719 197.148438 210.867188 C 200.3125 210.722656 203.46875 210.507812 206.617188 210.222656 C 209.769531 209.9375 212.914062 209.582031 216.050781 209.160156 C 219.1875 208.734375 222.3125 208.238281 225.425781 207.675781 C 228.539062 207.113281 231.640625 206.480469 234.726562 205.777344 C 237.8125 205.078125 240.878906 204.308594 243.933594 203.46875 C 246.984375 202.628906 250.015625 201.726562 253.027344 200.753906 C 256.039062 199.777344 259.027344 198.738281 261.992188 197.632812 C 264.957031 196.527344 267.898438 195.355469 270.8125 194.121094 C 273.726562 192.882812 276.609375 191.582031 279.464844 190.214844 C 282.320312 188.851562 285.144531 187.421875 287.9375 185.933594 C 290.730469 184.441406 293.488281 182.890625 296.210938 181.277344 C 298.9375 179.664062 301.621094 177.988281 304.273438 176.257812 C 306.921875 174.523438 309.53125 172.734375 312.101562 170.882812 C 314.671875 169.035156 317.199219 167.128906 319.683594 165.167969 C 322.167969 163.207031 324.609375 161.191406 327.003906 159.121094 Z M 369.429688 208.355469 " fill-opacity="1" fill-rule="nonzero"/><g fill="#5e17eb" fill-opacity="1"><g transform="translate(15.285169, 199.146959)"><g><path d="M 26.3125 11.953125 L 12.671875 -12.34375 L 14.296875 -14.5 L 42.34375 -9.328125 L 39.796875 -5.953125 L 17.703125 -10.53125 L 28.84375 8.578125 Z M 26.3125 11.953125 "/></g></g></g><g fill="#000000" fill-opacity="1"><g transform="translate(41.825524, 218.634348)"><g/></g></g><g fill="#000000" fill-opacity="1"><g transform="translate(59.601033, 229.585787)"><g><path d="M 25.746094 12.296875 L 29.292969 4.871094 L 12.976562 -2.921875 L 21.425781 -20.609375 L 37.742188 -12.8125 L 41.3125 -20.289062 L 16.835938 -31.980469 L 1.269531 0.605469 Z M 25.746094 12.296875 "/></g></g></g><g fill="#000000" fill-opacity="1"><g transform="translate(88.510739, 243.24985)"><g><path d="M 27.042969 9.101562 L 25.226562 -2.132812 L 30.253906 -0.441406 L 38.5625 -25.121094 L 12.855469 -33.777344 L 1.335938 0.449219 L 9.902344 3.332031 L 13.117188 -6.210938 L 16.8125 -4.964844 L 18.472656 6.21875 Z M 24.3125 -11.125 L 15.742188 -14.011719 L 18.78125 -23.042969 L 27.351562 -20.15625 Z M 24.3125 -11.125 "/></g></g></g><g fill="#000000" fill-opacity="1"><g transform="translate(119.1777, 253.417718)"><g><path d="M 27.839844 5.742188 L 29.5 -2.320312 L 11.894531 -5.949219 L 13.097656 -11.78125 L 30.703125 -8.152344 L 32.3125 -15.949219 L 14.707031 -19.578125 L 15.855469 -25.144531 L 33.460938 -21.515625 L 35.132812 -29.628906 L 8.671875 -35.085938 L 1.378906 0.285156 Z M 27.839844 5.742188 "/></g></g></g><g fill="#000000" fill-opacity="1"><g transform="translate(150.743036, 259.783556)"><g><path d="M 28.4375 2.335938 L 31.394531 -33.65625 L 4.359375 -35.875 L 1.402344 0.117188 L 10.414062 0.855469 L 11.238281 -9.179688 L 20.25 -8.441406 L 19.425781 1.597656 Z M 20.925781 -16.640625 L 11.914062 -17.382812 L 12.695312 -26.878906 L 21.707031 -26.140625 Z M 20.925781 -16.640625 "/></g></g></g><g fill="#000000" fill-opacity="1"><g transform="translate(182.911345, 262.252939)"><g><path d="M 26.882812 -28.847656 L 26.578125 -37.125 L -0.53125 -36.117188 L -0.222656 -27.839844 L 8.867188 -28.179688 L 9.902344 -0.367188 L 18.9375 -0.703125 L 17.902344 -28.515625 Z M 26.882812 -28.847656 "/></g></g></g><g fill="#000000" fill-opacity="1"><g transform="translate(213.207357, 260.712838)"><g><path d="M 10.375 -1.246094 L 6.066406 -37.101562 L -2.910156 -36.023438 L 1.398438 -0.167969 Z M 10.375 -1.246094 "/></g></g></g><g fill="#000000" fill-opacity="1"><g transform="translate(226.666694, 259.411002)"><g><path d="M 27.9375 -5.792969 L 20.605469 -41.152344 L -5.953125 -35.648438 L 1.378906 -0.285156 Z M 17.414062 -12.015625 L 8.5625 -10.179688 L 4.582031 -29.371094 L 13.433594 -31.207031 Z M 17.414062 -12.015625 "/></g></g></g><g fill="#000000" fill-opacity="1"><g transform="translate(258.249773, 252.700992)"><g><path d="M 26.476562 -8.914062 L 14.953125 -43.140625 L -10.753906 -34.484375 L -8.113281 -26.632812 L -6.417969 -27.203125 L 2.464844 -0.828125 L 9.339844 -3.144531 L 0.457031 -29.519531 L 9.027344 -32.40625 L 17.90625 -6.03125 Z M 26.476562 -8.914062 "/></g></g></g><g fill="#000000" fill-opacity="1"><g transform="translate(288.244752, 242.46843)"><g><path d="M 25.753906 -12.285156 L 16.21875 -32.269531 L -0.101562 -24.484375 L -2.550781 -29.617188 L 13.773438 -37.402344 L 10.207031 -44.878906 L -14.277344 -33.199219 L -4.835938 -13.410156 L 11.484375 -21.195312 L 14.050781 -15.820312 L -2.273438 -8.035156 L 1.269531 -0.605469 Z M 25.753906 -12.285156 "/></g></g></g><g fill="#000000" fill-opacity="1"><g transform="translate(316.787876, 228.445461)"><g/></g></g><g fill="#5e17eb" fill-opacity="1"><g transform="translate(334.80454, 217.781966)"><g><path d="M -4.15625 -10.015625 L 7.03125 -29.078125 L -15.109375 -24.546875 L -17.65625 -27.921875 L 10.390625 -33.09375 L 12.015625 -30.9375 L -1.625 -6.640625 Z M -4.15625 -10.015625 "/></g></g></g></svg>